<!-- icon666.com - MILLIONS vector ICONS FREE --><svg version="1.1" id="Layer_1" xmlns="http://www.w3.org/2000/svg" xmlns:xlink="http://www.w3.org/1999/xlink" x="0px" y="0px" viewBox="0 0 512 512" style="enable-background:new 0 0 512 512;" xml:space="preserve"><path style="fill:#314E55;" d="M256,0C114.843,0,0,114.843,0,256s114.843,256,256,256s256-114.843,256-256S397.157,0,256,0z"></path><path style="fill:#73C9C9;" d="M256,493.037C125.296,493.037,18.963,386.704,18.963,256S125.296,18.963,256,18.963 S493.037,125.296,493.037,256S386.704,493.037,256,493.037z"></path><path style="fill:#314E55;" d="M292.5,149.741c-3.704-3.704-9.704-3.704-13.407,0l-99.556,99.556c-3.704,3.704-3.704,9.704,0,13.407 l99.556,99.556c1.852,1.852,4.278,2.778,6.704,2.778c2.426,0,4.852-0.926,6.704-2.778c3.704-3.704,3.704-9.704,0-13.407L199.648,256 l92.852-92.852C296.204,159.444,296.204,153.445,292.5,149.741z"></path></svg>